<svg width="285.72" height="28.88" viewBox="0 0 285.72 28.88" xmlns="http://www.w3.org/2000/svg"><g id="svgGroup" stroke-linecap="round" fill-rule="evenodd" font-size="9pt" stroke="#ffffff" stroke-width="0.25mm" fill="#ffffff" style="stroke:#ffffff;stroke-width:0.25mm;fill:#ffffff"><path d="M 84 15.12 L 84 28.48 L 79.28 28.48 L 79.28 9.48 L 82.92 9.48 L 83.52 12 A 11.786 11.786 0 0 1 85.509 10.389 A 10.427 10.427 0 0 1 86.36 9.9 A 7.004 7.004 0 0 1 88.561 9.212 A 9.113 9.113 0 0 1 89.88 9.12 A 8.498 8.498 0 0 1 91.386 9.246 Q 92.256 9.403 92.967 9.755 A 5.027 5.027 0 0 1 93.24 9.9 Q 94.6 10.68 95.28 12.12 A 10.932 10.932 0 0 1 97.675 10.241 A 10.097 10.097 0 0 1 98.28 9.92 Q 99.92 9.12 101.88 9.12 Q 104.107 9.12 105.541 10.024 A 4.683 4.683 0 0 1 106.44 10.76 Q 107.822 12.213 107.98 14.764 A 10.953 10.953 0 0 1 108 15.44 L 108 28.48 L 103.28 28.48 L 103.28 16.08 A 5.187 5.187 0 0 0 103.195 15.111 Q 103.033 14.258 102.56 13.68 A 2.281 2.281 0 0 0 101.382 12.929 Q 100.998 12.82 100.534 12.803 A 4.755 4.755 0 0 0 100.36 12.8 A 5.105 5.105 0 0 0 98.548 13.142 A 6.201 6.201 0 0 0 98.04 13.36 Q 96.88 13.92 95.96 14.96 A 4.407 4.407 0 0 1 95.987 15.194 Q 95.998 15.309 96 15.413 A 2.525 2.525 0 0 1 96 15.46 L 96 15.96 L 96 28.48 L 91.28 28.48 L 91.28 16.08 A 5.187 5.187 0 0 0 91.195 15.111 Q 91.033 14.258 90.56 13.68 A 2.281 2.281 0 0 0 89.382 12.929 Q 88.998 12.82 88.534 12.803 A 4.755 4.755 0 0 0 88.36 12.8 A 4.578 4.578 0 0 0 86.578 13.171 A 5.668 5.668 0 0 0 86.06 13.42 A 7.075 7.075 0 0 0 84.353 14.731 A 8.306 8.306 0 0 0 84 15.12 Z M 26.28 14.92 L 26.28 28.48 L 21.56 28.48 L 21.56 0 L 26.28 0 L 26.28 11.44 A 10.89 10.89 0 0 1 28.64 9.95 A 12.332 12.332 0 0 1 29.02 9.78 A 8.285 8.285 0 0 1 31.997 9.127 A 9.61 9.61 0 0 1 32.36 9.12 A 9.482 9.482 0 0 1 33.719 9.212 Q 34.445 9.318 35.061 9.543 A 5.579 5.579 0 0 1 35.26 9.62 A 5.891 5.891 0 0 1 36.561 10.348 A 5.08 5.08 0 0 1 37.28 11 A 5.511 5.511 0 0 1 38.436 13.005 A 6.336 6.336 0 0 1 38.46 13.08 A 8.123 8.123 0 0 1 38.795 14.758 A 10.039 10.039 0 0 1 38.84 15.72 L 38.84 28.48 L 34.12 28.48 L 34.12 16.64 Q 34.12 14.744 33.412 13.833 A 2.219 2.219 0 0 0 33.3 13.7 A 2.615 2.615 0 0 0 32.061 12.951 Q 31.635 12.828 31.121 12.805 A 5.379 5.379 0 0 0 30.88 12.8 A 5.211 5.211 0 0 0 29.266 13.065 A 6.52 6.52 0 0 0 28.52 13.36 A 8.079 8.079 0 0 0 26.676 14.56 A 9.383 9.383 0 0 0 26.28 14.92 Z M 226.92 23.12 L 226.92 9.48 L 231.64 9.48 L 231.64 28.48 L 228.08 28.48 L 227.52 26.28 L 227.36 26.28 Q 226.44 27.24 224.92 28.06 A 6.409 6.409 0 0 1 223.269 28.662 Q 222.296 28.88 221.12 28.88 A 8.684 8.684 0 0 1 219.059 28.649 A 6.03 6.03 0 0 1 216.32 27.2 Q 214.75 25.735 214.549 22.993 A 11.4 11.4 0 0 1 214.52 22.16 L 214.52 9.48 L 219.24 9.48 L 219.24 21.68 Q 219.24 23.587 220.092 24.414 A 2.054 2.054 0 0 0 220.14 24.46 A 3.102 3.102 0 0 0 221.811 25.235 A 4.242 4.242 0 0 0 222.44 25.28 A 5.976 5.976 0 0 0 223.744 25.144 A 4.642 4.642 0 0 0 225.02 24.66 Q 226.12 24.04 226.92 23.12 Z M 284.8 10.32 L 283.8 13.72 Q 281.44 12.6 279.2 12.6 A 6.762 6.762 0 0 0 278.363 12.648 Q 277.95 12.7 277.612 12.807 A 2.634 2.634 0 0 0 276.94 13.12 Q 276.193 13.618 276.161 14.483 A 2.112 2.112 0 0 0 276.16 14.56 A 1.605 1.605 0 0 0 276.663 15.735 A 2.254 2.254 0 0 0 276.8 15.86 A 2.655 2.655 0 0 0 277.2 16.131 Q 277.887 16.521 279.23 16.922 A 22.852 22.852 0 0 0 279.36 16.96 L 280.56 17.32 A 12.989 12.989 0 0 1 282.171 17.909 Q 283.567 18.534 284.42 19.4 A 4.442 4.442 0 0 1 285.639 21.853 A 6.247 6.247 0 0 1 285.72 22.88 A 5.89 5.89 0 0 1 285.363 24.97 A 5.194 5.194 0 0 1 283.64 27.26 Q 281.854 28.651 278.946 28.848 A 14.636 14.636 0 0 1 277.96 28.88 Q 274.08 28.88 271.52 27.6 L 272.56 24.08 Q 273.72 24.64 275.02 25 Q 276.32 25.36 277.72 25.36 Q 280.023 25.36 280.729 24.34 A 1.887 1.887 0 0 0 281.04 23.24 A 1.862 1.862 0 0 0 280.939 22.612 Q 280.767 22.127 280.299 21.824 A 2.017 2.017 0 0 0 280.26 21.8 Q 279.48 21.32 277.6 20.76 L 276.36 20.36 A 12.62 12.62 0 0 1 274.872 19.781 Q 273.493 19.133 272.7 18.26 A 4.442 4.442 0 0 1 271.641 16.114 A 6.384 6.384 0 0 1 271.52 14.84 Q 271.52 13.6 272.04 12.54 Q 272.56 11.48 273.5 10.72 A 6.301 6.301 0 0 1 274.869 9.886 A 8.007 8.007 0 0 1 275.78 9.54 A 9.086 9.086 0 0 1 277.548 9.182 A 11.558 11.558 0 0 1 278.76 9.12 Q 280.4 9.12 281.94 9.42 A 13.135 13.135 0 0 1 284.212 10.072 A 11.762 11.762 0 0 1 284.8 10.32 Z M 177.36 17.88 L 177.36 20.04 L 164.44 20.04 L 164.44 20.2 A 6.635 6.635 0 0 0 164.598 21.696 Q 164.848 22.774 165.491 23.532 A 3.984 3.984 0 0 0 166.06 24.08 A 5.69 5.69 0 0 0 168.24 25.124 Q 169.186 25.36 170.32 25.36 Q 171.828 25.36 173.019 25.098 A 9.074 9.074 0 0 0 173.1 25.08 Q 174.32 24.8 175.44 24.32 L 176.36 27.64 A 11.783 11.783 0 0 1 175.261 28.064 Q 174.69 28.254 174.041 28.416 A 20.23 20.23 0 0 1 173.6 28.52 A 13.725 13.725 0 0 1 172.1 28.766 Q 171.329 28.852 170.466 28.873 A 23.703 23.703 0 0 1 169.88 28.88 A 14.262 14.262 0 0 1 166.967 28.591 A 12.626 12.626 0 0 1 165.9 28.32 A 8.892 8.892 0 0 1 162.728 26.634 A 8.644 8.644 0 0 1 162.64 26.56 A 8.276 8.276 0 0 1 160.705 24.107 A 9.857 9.857 0 0 1 160.42 23.52 Q 159.654 21.802 159.604 19.457 A 15.544 15.544 0 0 1 159.6 19.12 A 12.819 12.819 0 0 1 159.815 16.727 A 10.511 10.511 0 0 1 160.28 15.04 A 9.566 9.566 0 0 1 161.513 12.71 A 8.634 8.634 0 0 1 162.2 11.88 Q 163.44 10.56 165.2 9.84 Q 166.96 9.12 169.08 9.12 A 10.049 10.049 0 0 1 171.71 9.446 A 7.292 7.292 0 0 1 175.12 11.44 A 7.655 7.655 0 0 1 177.011 14.909 Q 177.316 16.086 177.355 17.478 A 14.675 14.675 0 0 1 177.36 17.88 Z M 268.68 17.88 L 268.68 20.04 L 255.76 20.04 L 255.76 20.2 A 6.635 6.635 0 0 0 255.918 21.696 Q 256.168 22.774 256.811 23.532 A 3.984 3.984 0 0 0 257.38 24.08 A 5.69 5.69 0 0 0 259.56 25.124 Q 260.506 25.36 261.64 25.36 Q 263.148 25.36 264.339 25.098 A 9.074 9.074 0 0 0 264.42 25.08 Q 265.64 24.8 266.76 24.32 L 267.68 27.64 A 11.783 11.783 0 0 1 266.581 28.064 Q 266.01 28.254 265.361 28.416 A 20.23 20.23 0 0 1 264.92 28.52 A 13.725 13.725 0 0 1 263.42 28.766 Q 262.649 28.852 261.786 28.873 A 23.703 23.703 0 0 1 261.2 28.88 A 14.262 14.262 0 0 1 258.287 28.591 A 12.626 12.626 0 0 1 257.22 28.32 A 8.892 8.892 0 0 1 254.048 26.634 A 8.644 8.644 0 0 1 253.96 26.56 A 8.276 8.276 0 0 1 252.025 24.107 A 9.857 9.857 0 0 1 251.74 23.52 Q 250.974 21.802 250.924 19.457 A 15.544 15.544 0 0 1 250.92 19.12 A 12.819 12.819 0 0 1 251.135 16.727 A 10.511 10.511 0 0 1 251.6 15.04 A 9.566 9.566 0 0 1 252.833 12.71 A 8.634 8.634 0 0 1 253.52 11.88 Q 254.76 10.56 256.52 9.84 Q 258.28 9.12 260.4 9.12 A 10.049 10.049 0 0 1 263.03 9.446 A 7.292 7.292 0 0 1 266.44 11.44 A 7.655 7.655 0 0 1 268.331 14.909 Q 268.636 16.086 268.675 17.478 A 14.675 14.675 0 0 1 268.68 17.88 Z M 45.88 14.4 L 44.2 11.16 A 18.802 18.802 0 0 1 47.311 9.802 A 17.216 17.216 0 0 1 47.76 9.66 A 12.762 12.762 0 0 1 50.246 9.187 A 15.859 15.859 0 0 1 51.72 9.12 Q 53.4 9.12 54.76 9.5 A 6.461 6.461 0 0 1 56.46 10.24 A 5.851 5.851 0 0 1 57.12 10.72 A 5.268 5.268 0 0 1 58.432 12.396 A 6.429 6.429 0 0 1 58.66 12.9 Q 59.2 14.24 59.2 16.16 L 59.2 28.48 L 55.48 28.48 L 55 26.48 L 54.88 26.48 A 6.628 6.628 0 0 1 50.956 28.711 A 9.896 9.896 0 0 1 49.08 28.88 Q 46.683 28.88 45.129 27.872 A 5.167 5.167 0 0 1 44.4 27.3 A 5.262 5.262 0 0 1 42.737 23.702 A 7.153 7.153 0 0 1 42.72 23.2 A 6.32 6.32 0 0 1 42.86 21.84 A 4.779 4.779 0 0 1 43.4 20.44 Q 44.08 19.28 45.26 18.52 A 7.9 7.9 0 0 1 46.778 17.768 A 10.468 10.468 0 0 1 48.08 17.38 A 14.722 14.722 0 0 1 50.353 17.045 A 18.015 18.015 0 0 1 51.64 17 L 54.44 17 L 54.44 15.68 Q 54.44 14.12 53.52 13.46 Q 52.749 12.907 51.53 12.817 A 6.675 6.675 0 0 0 51.04 12.8 A 7.912 7.912 0 0 0 49.623 12.934 A 10.074 10.074 0 0 0 48.66 13.16 Q 47.58 13.469 46.309 14.159 A 18.178 18.178 0 0 0 45.88 14.4 Z M 115 14.4 L 113.32 11.16 A 18.802 18.802 0 0 1 116.431 9.802 A 17.216 17.216 0 0 1 116.88 9.66 A 12.762 12.762 0 0 1 119.366 9.187 A 15.859 15.859 0 0 1 120.84 9.12 Q 122.52 9.12 123.88 9.5 A 6.461 6.461 0 0 1 125.58 10.24 A 5.851 5.851 0 0 1 126.24 10.72 A 5.268 5.268 0 0 1 127.552 12.396 A 6.429 6.429 0 0 1 127.78 12.9 Q 128.32 14.24 128.32 16.16 L 128.32 28.48 L 124.6 28.48 L 124.12 26.48 L 124 26.48 A 6.628 6.628 0 0 1 120.076 28.711 A 9.896 9.896 0 0 1 118.2 28.88 Q 115.803 28.88 114.249 27.872 A 5.167 5.167 0 0 1 113.52 27.3 A 5.262 5.262 0 0 1 111.857 23.702 A 7.153 7.153 0 0 1 111.84 23.2 A 6.32 6.32 0 0 1 111.98 21.84 A 4.779 4.779 0 0 1 112.52 20.44 Q 113.2 19.28 114.38 18.52 A 7.9 7.9 0 0 1 115.898 17.768 A 10.468 10.468 0 0 1 117.2 17.38 A 14.722 14.722 0 0 1 119.473 17.045 A 18.015 18.015 0 0 1 120.76 17 L 123.56 17 L 123.56 15.68 Q 123.56 14.12 122.64 13.46 Q 121.869 12.907 120.65 12.817 A 6.675 6.675 0 0 0 120.16 12.8 A 7.912 7.912 0 0 0 118.743 12.934 A 10.074 10.074 0 0 0 117.78 13.16 Q 116.7 13.469 115.429 14.159 A 18.178 18.178 0 0 0 115 14.4 Z M 210.36 9.48 L 210.36 12.92 L 205.12 12.92 L 205.12 22.44 A 4.371 4.371 0 0 0 205.164 23.084 Q 205.28 23.862 205.704 24.238 A 1.267 1.267 0 0 0 205.78 24.3 A 2.377 2.377 0 0 0 206.691 24.716 Q 207.031 24.795 207.427 24.8 A 4.268 4.268 0 0 0 207.48 24.8 Q 208.28 24.8 209.16 24.64 A 7.978 7.978 0 0 0 209.829 24.49 Q 210.142 24.405 210.408 24.3 A 4.205 4.205 0 0 0 210.64 24.2 L 211.36 27.56 A 7.792 7.792 0 0 1 210.832 27.758 Q 210.214 27.967 209.357 28.167 A 25.003 25.003 0 0 1 209.3 28.18 A 11.836 11.836 0 0 1 207.294 28.459 A 13.924 13.924 0 0 1 206.52 28.48 Q 203.498 28.48 202.06 27.332 A 3.494 3.494 0 0 1 201.86 27.16 A 4.161 4.161 0 0 1 200.732 25.321 Q 200.522 24.656 200.463 23.851 A 8.925 8.925 0 0 1 200.44 23.2 L 200.44 12.92 L 197.56 12.92 L 197.56 9.48 L 200.44 9.48 L 200.44 3.56 L 205.12 3.56 L 205.12 9.48 L 210.36 9.48 Z M 142.56 28.48 L 142.56 3.28 L 147.44 3.28 L 147.44 24.56 L 157.8 24.56 L 157.8 28.48 L 142.56 28.48 Z M 0 28.48 L 0 3.28 L 8.52 3.28 A 14.931 14.931 0 0 1 10.66 3.427 A 11.629 11.629 0 0 1 12.36 3.8 A 9.676 9.676 0 0 1 14.143 4.531 A 7.989 7.989 0 0 1 15.32 5.3 Q 16.56 6.28 17.22 7.7 A 6.987 6.987 0 0 1 17.787 9.639 A 9.073 9.073 0 0 1 17.88 10.96 Q 17.88 13.08 17.12 14.6 Q 16.36 16.12 15.04 17.14 A 8.339 8.339 0 0 1 12.79 18.366 A 10.1 10.1 0 0 1 11.92 18.64 A 14.326 14.326 0 0 1 9.188 19.082 A 17.054 17.054 0 0 1 8.04 19.12 L 4.88 19.12 L 4.88 28.48 L 0 28.48 Z M 194.84 24.4 L 195.76 27.72 A 7.745 7.745 0 0 1 195.038 28.032 Q 194.652 28.179 194.194 28.315 A 17.767 17.767 0 0 1 193.44 28.52 A 11.977 11.977 0 0 1 191.537 28.829 A 15.009 15.009 0 0 1 190.28 28.88 A 12.812 12.812 0 0 1 187.407 28.567 A 11.356 11.356 0 0 1 186.32 28.26 A 8.95 8.95 0 0 1 183.314 26.571 A 8.64 8.64 0 0 1 183.12 26.4 A 8.521 8.521 0 0 1 181.211 23.826 A 10.058 10.058 0 0 1 180.98 23.32 A 9.562 9.562 0 0 1 180.349 21.06 A 13.05 13.05 0 0 1 180.2 19.04 A 11.751 11.751 0 0 1 180.454 16.552 A 9.82 9.82 0 0 1 180.94 14.96 A 9.127 9.127 0 0 1 182.539 12.326 A 8.61 8.61 0 0 1 183.02 11.82 Q 184.36 10.52 186.22 9.82 A 10.968 10.968 0 0 1 189.073 9.177 A 13.368 13.368 0 0 1 190.32 9.12 A 13.985 13.985 0 0 1 192.388 9.278 A 15.825 15.825 0 0 1 192.88 9.36 Q 194.118 9.585 195.531 10.232 A 15.905 15.905 0 0 1 195.72 10.32 L 194.72 13.68 Q 193.8 13.16 192.84 12.88 Q 191.88 12.6 190.84 12.6 A 6.978 6.978 0 0 0 188.954 12.842 A 5.231 5.231 0 0 0 186.6 14.22 Q 185.196 15.642 185.024 18.188 A 10.874 10.874 0 0 0 185 18.92 A 10.382 10.382 0 0 0 185.079 20.241 Q 185.167 20.926 185.353 21.506 A 5.542 5.542 0 0 0 185.52 21.96 A 6.389 6.389 0 0 0 186.099 23.049 A 4.896 4.896 0 0 0 186.88 23.96 Q 187.72 24.72 188.78 25.04 Q 189.84 25.36 190.92 25.36 A 9.281 9.281 0 0 0 192.045 25.295 Q 192.617 25.225 193.114 25.08 A 5.662 5.662 0 0 0 193.18 25.06 A 12.206 12.206 0 0 0 193.953 24.796 Q 194.447 24.608 194.84 24.4 Z M 68.56 28.48 L 63.88 28.48 L 63.88 9.48 L 67.52 9.48 L 68.12 13.04 A 6.716 6.716 0 0 1 70.268 10.269 A 7.83 7.83 0 0 1 70.28 10.26 A 5.41 5.41 0 0 1 72.702 9.223 A 7.382 7.382 0 0 1 73.96 9.12 A 7.811 7.811 0 0 1 74.754 9.158 Q 75.235 9.208 75.64 9.32 Q 76.36 9.52 76.84 9.76 L 76.04 13.6 A 4.1 4.1 0 0 0 75.617 13.401 Q 75.394 13.311 75.136 13.232 A 7.467 7.467 0 0 0 74.96 13.18 A 4.35 4.35 0 0 0 74.394 13.063 Q 74.114 13.024 73.796 13.009 A 8.486 8.486 0 0 0 73.4 13 A 4.895 4.895 0 0 0 71.387 13.407 A 4.734 4.734 0 0 0 69.96 14.4 A 4.219 4.219 0 0 0 69.003 15.939 Q 68.56 17.13 68.56 18.84 L 68.56 28.48 Z M 241.32 28.48 L 236.64 28.48 L 236.64 9.48 L 240.28 9.48 L 240.88 13.04 A 6.716 6.716 0 0 1 243.028 10.269 A 7.83 7.83 0 0 1 243.04 10.26 A 5.41 5.41 0 0 1 245.462 9.223 A 7.382 7.382 0 0 1 246.72 9.12 A 7.811 7.811 0 0 1 247.514 9.158 Q 247.995 9.208 248.4 9.32 Q 249.12 9.52 249.6 9.76 L 248.8 13.6 A 4.1 4.1 0 0 0 248.377 13.401 Q 248.154 13.311 247.896 13.232 A 7.467 7.467 0 0 0 247.72 13.18 A 4.35 4.35 0 0 0 247.154 13.063 Q 246.874 13.024 246.556 13.009 A 8.486 8.486 0 0 0 246.16 13 A 4.895 4.895 0 0 0 244.147 13.407 A 4.734 4.734 0 0 0 242.72 14.4 A 4.219 4.219 0 0 0 241.763 15.939 Q 241.32 17.13 241.32 18.84 L 241.32 28.48 Z M 4.88 7.04 L 4.88 15.32 L 7.12 15.32 Q 8.32 15.32 9.36 15.12 A 5.971 5.971 0 0 0 10.42 14.818 A 4.797 4.797 0 0 0 11.18 14.44 Q 11.96 13.96 12.4 13.16 A 3.346 3.346 0 0 0 12.728 12.268 Q 12.84 11.765 12.84 11.16 A 4.892 4.892 0 0 0 12.763 10.272 A 3.516 3.516 0 0 0 12.44 9.3 Q 12.04 8.52 11.34 8.02 A 4.709 4.709 0 0 0 10.115 7.399 A 5.603 5.603 0 0 0 9.72 7.28 Q 8.8 7.04 7.8 7.04 L 4.88 7.04 Z M 164.52 16.84 L 172.52 16.76 Q 172.52 15.92 172.32 15.14 A 4.116 4.116 0 0 0 171.909 14.112 A 3.718 3.718 0 0 0 171.68 13.76 Q 171.24 13.16 170.54 12.82 Q 169.84 12.48 168.88 12.48 A 4.41 4.41 0 0 0 167.404 12.718 A 3.802 3.802 0 0 0 165.92 13.68 Q 164.76 14.88 164.52 16.84 Z M 255.84 16.84 L 263.84 16.76 Q 263.84 15.92 263.64 15.14 A 4.116 4.116 0 0 0 263.229 14.112 A 3.718 3.718 0 0 0 263 13.76 Q 262.56 13.16 261.86 12.82 Q 261.16 12.48 260.2 12.48 A 4.41 4.41 0 0 0 258.724 12.718 A 3.802 3.802 0 0 0 257.24 13.68 Q 256.08 14.88 255.84 16.84 Z M 54.48 23.28 L 54.48 20 L 52.32 20.08 Q 50.228 20.143 49.141 20.671 A 2.736 2.736 0 0 0 48.64 20.98 A 3.07 3.07 0 0 0 48.027 21.613 A 2.278 2.278 0 0 0 47.6 22.96 A 3.858 3.858 0 0 0 47.66 23.669 Q 47.83 24.576 48.48 24.96 Q 49.36 25.48 50.52 25.48 Q 51.68 25.48 52.74 24.9 Q 53.8 24.32 54.48 23.28 Z M 123.6 23.28 L 123.6 20 L 121.44 20.08 Q 119.348 20.143 118.261 20.671 A 2.736 2.736 0 0 0 117.76 20.98 A 3.07 3.07 0 0 0 117.147 21.613 A 2.278 2.278 0 0 0 116.72 22.96 A 3.858 3.858 0 0 0 116.78 23.669 Q 116.95 24.576 117.6 24.96 Q 118.48 25.48 119.64 25.48 Q 120.8 25.48 121.86 24.9 Q 122.92 24.32 123.6 23.28 Z" vector-effect="non-scaling-stroke"/></g></svg>
